<svg xmlns="http://www.w3.org/2000/svg" viewBox="0 0 2147.31 215.87"><defs><style>.cls-1{fill:#fff;}</style></defs><g id="Layer_2" data-name="Layer 2"><g id="Layer_1-2" data-name="Layer 1"><path class="cls-1" d="M1779.69,0h60.22V193.29h-60.22Zm367.6,40.34H2033.2v153H1973v-153H1855V0h292.32V40.34Z"/><path class="cls-1" d="M319.75,8.73a32.57,32.57,0,0,1,6.32,19V163.18q0,15.06-8.73,22.58-8.43,7.55-16.26,7.53H248.39l-50.28-40h70.42V40.34H60.21V153.25H168l82.8,62.62H178.24l-32.82-22.58H25q-7.53,0-16.26-7.53Q0,177.95,0,163.18V27.7Q0,17.47,7.52,9q7.53-9,22.59-9H298.67q15,0,21.08,8.73Zm81.58,144.52H609.68V0h57.51V168.31q0,25-25,25H366.11q-7.23,0-16.26-6.32-8.73-6.33-8.73-23.79V0h60.21ZM980.92,0V40.05H682.24V.05ZM915.58,75.27v40.35H742.46v34.92H980.92v42.75H682.24v-118Zm140.6,78h208.35V0H1322V168.31q0,25-25,25H1021q-7.23,0-16.26-6.32Q996,180.66,996,163.2V0h60.22V153.27ZM1635.75,0V40.05H1337.08V.05Zm-65.33,75.27v40.35H1397.3v34.92h238.45v42.75H1337.08v-118Z"/><path class="cls-1" d="M1700.35,58.37a38.34,38.34,0,1,1-.07,0Z"/></g></g></svg>